<svg xmlns="http://www.w3.org/2000/svg" viewBox="0 0 64 64" role="img" aria-hidden="true">
  <path fill="currentColor" fill-rule="evenodd" d="M32 11.2 L34.82 2.13 L36.28 11.65 L39.66 12.66 L42.4 13.99 L49.38 7.55 L45.89 16.51 L48.3 19.08 L50.01 21.6 L59.28 19.51 L51.77 25.53 L52.58 28.96 L52.8 32 L61.87 34.82 L52.35 36.28 L51.34 39.66 L50.01 42.4 L56.45 49.38 L47.49 45.89 L44.92 48.3 L42.4 50.01 L44.49 59.28 L38.47 51.77 L35.04 52.58 L32 52.8 L29.18 61.87 L27.72 52.35 L24.34 51.34 L21.6 50.01 L14.62 56.45 L18.11 47.49 L15.7 44.92 L13.99 42.4 L4.72 44.49 L12.23 38.47 L11.42 35.04 L11.2 32 L2.13 29.18 L11.65 27.72 L12.66 24.34 L13.99 21.6 L7.55 14.62 L16.51 18.11 L19.08 15.7 L21.6 13.99 L19.51 4.72 L25.53 12.23 L28.96 11.42 Z M32 20.8 L30.54 20.9 L29.1 21.18 L27.71 21.65 L26.4 22.3 L25.18 23.11 L24.08 24.08 L23.11 25.18 L22.3 26.4 L21.65 27.71 L21.18 29.1 L20.9 30.54 L20.8 32 L20.9 33.46 L21.18 34.9 L21.65 36.29 L22.3 37.6 L23.11 38.82 L24.08 39.92 L25.18 40.89 L26.4 41.7 L27.71 42.35 L29.1 42.82 L30.54 43.1 L32 43.2 L33.46 43.1 L34.9 42.82 L36.29 42.35 L37.6 41.7 L38.82 40.89 L39.92 39.92 L40.89 38.82 L41.7 37.6 L42.35 36.29 L42.82 34.9 L43.1 33.46 L43.2 32 L43.1 30.54 L42.82 29.1 L42.35 27.71 L41.7 26.4 L40.89 25.18 L39.92 24.08 L38.82 23.11 L37.6 22.3 L36.29 21.65 L34.9 21.18 L33.46 20.9 L32 20.8 Z"/>
</svg>
